<?xml version="1.0" encoding="UTF-8" standalone="no"?><!DOCTYPE svg PUBLIC "-//W3C//DTD SVG 1.1//EN" "http://www.w3.org/Graphics/SVG/1.1/DTD/svg11.dtd"><svg width="100%" height="100%" viewBox="0 0 95 97" version="1.1" xmlns="http://www.w3.org/2000/svg" xmlns:xlink="http://www.w3.org/1999/xlink" xml:space="preserve" xmlns:serif="http://www.serif.com/" style="fill-rule:evenodd;clip-rule:evenodd;stroke-linecap:round;stroke-linejoin:round;stroke-miterlimit:1.5;"><path d="M16.55,63.408l-0,10.703c-0,4.017 -3.257,7.274 -7.274,7.274l-0.002,-0c-4.017,-0 -7.274,-3.257 -7.274,-7.274l0,-10.703l14.55,0Z" style="fill:#ede7a3;stroke:#000;stroke-width:4px;"/><path d="M92.296,63.408l0,10.703c0,4.017 -3.256,7.274 -7.274,7.274l-0.002,-0c-4.017,-0 -7.274,-3.257 -7.274,-7.274l0,-10.703l14.55,0Z" style="fill:#ede7a3;stroke:#000;stroke-width:4px;"/><path d="M34.663,5.085l-0,60.807c-0,1.702 -1.383,3.085 -3.085,3.085l-6.17,-0c-1.702,-0 -3.085,-1.383 -3.085,-3.085l0,-60.807c0,-1.703 1.383,-3.085 3.085,-3.085l6.17,0c1.702,0 3.085,1.382 3.085,3.085Z" style="fill:#ede7a3;stroke:#000;stroke-width:4px;"/><path d="M73.173,5.687l0,59.602c0,2.035 -1.652,3.688 -3.687,3.688l-7.375,-0c-2.035,-0 -3.687,-1.653 -3.687,-3.688l-0,-59.602c-0,-2.035 1.652,-3.687 3.687,-3.687l7.375,0c2.035,0 3.687,1.652 3.687,3.687Z" style="fill:#ede7a3;stroke:#000;stroke-width:4px;"/><path d="M83.295,62.654c1.229,7.888 -1.052,15.92 -6.245,21.984c-5.193,6.064 -12.777,9.555 -20.761,9.555c-6.002,0 -12.279,0 -18.282,0c-7.983,0 -15.568,-3.491 -20.761,-9.555c-5.192,-6.064 -7.474,-14.096 -6.245,-21.984c1.27,-8.151 2.613,-16.775 3.802,-24.406c2.074,-13.311 13.536,-23.125 27.007,-23.125l10.677,-0c13.471,-0 24.933,9.814 27.006,23.125c1.189,7.631 2.533,16.255 3.802,24.406Z" style="fill:#ede7a3;stroke:#000;stroke-width:4.43px;"/><path d="M80.168,25.456l0,20.665c0,5.703 -4.63,10.333 -10.333,10.333l-45.374,0c-5.703,0 -10.333,-4.63 -10.333,-10.333l-0,-20.665c-0,-5.703 4.63,-10.333 10.333,-10.333l45.374,-0c5.703,-0 10.333,4.63 10.333,10.333Z" style="fill:#ede7a3;stroke:#000;stroke-width:4px;"/><path d="M53.318,55.086l-0,4.111c-0,1.134 -0.921,2.055 -2.055,2.055l-8.229,-0c-1.135,-0 -2.055,-0.921 -2.055,-2.055l-0,-4.111c-0,-1.134 0.92,-2.055 2.055,-2.055l8.229,0c1.134,0 2.055,0.921 2.055,2.055Z" style="fill:#ff6f30;stroke:#000;stroke-width:3px;"/></svg>